<svg viewBox="0 0 56 48" fill="none" xmlns="http://www.w3.org/2000/svg">
  <rect width="56" height="48" fill="#f7f1e7"/>
  <g transform="translate(4 10) rotate(-14 14 18)">
    <rect x="0" y="0" width="28" height="38" rx="3" fill="#f7f1e7" stroke="#191512" stroke-width="1.25"/>
    <rect x="3" y="3" width="22" height="32" rx="1.5" stroke="#d9cfc0" stroke-width="0.75" fill="none"/>
    <path d="M6 8 L22 8 M6 14 L22 14 M6 20 L22 20 M6 26 L22 26 M6 32 L22 32" stroke="#d9cfc0" stroke-width="0.5" opacity="0.7"/>
  </g>
  <g transform="translate(14 6) rotate(4 14 18)">
    <rect x="0" y="0" width="28" height="38" rx="3" fill="#ede5d8" stroke="#191512" stroke-width="1.25"/>
    <rect x="3" y="3" width="22" height="32" rx="1.5" stroke="#d9cfc0" stroke-width="0.75" fill="none"/>
    <circle cx="14" cy="19" r="5.5" stroke="#191512" stroke-width="0.85" fill="none"/>
    <path d="M14 10.5 L14 7.5 M14 30.5 L14 27.5 M8.1 13.1 L6 11 M21.9 13.1 L24 11 M8.1 24.9 L6 27 M21.9 24.9 L24 27" stroke="#191512" stroke-width="0.75" stroke-linecap="round"/>
  </g>
  <g transform="translate(24 2)">
    <rect x="0" y="0" width="28" height="38" rx="3" fill="#f7f1e7" stroke="#191512" stroke-width="1.35"/>
    <rect x="3" y="3" width="22" height="32" rx="1.5" stroke="#d9cfc0" stroke-width="0.85" fill="none"/>
    <rect x="5.5" y="5.5" width="17" height="27" rx="1" stroke="#d9cfc0" stroke-width="0.5" fill="none"/>
    <path d="M8 9 L8.6 10.4 L10 11 L8.6 11.6 L8 13 L7.4 11.6 L6 11 L7.4 10.4 Z" fill="#c42e1f"/>
    <path d="M20 9 L20.6 10.4 L22 11 L20.6 11.6 L20 13 L19.4 11.6 L18 11 L19.4 10.4 Z" fill="#c42e1f"/>
    <path d="M8 29 L8.6 30.4 L10 31 L8.6 31.6 L8 33 L7.4 31.6 L6 31 L7.4 30.4 Z" fill="#c42e1f"/>
    <path d="M20 29 L20.6 30.4 L22 31 L20.6 31.6 L20 33 L19.4 31.6 L18 31 L19.4 30.4 Z" fill="#c42e1f"/>
    <circle cx="14" cy="17" r="4.25" fill="#ff4433" opacity="0.92"/>
    <path d="M14 8.5 L14 6.5 M14 27.5 L14 25.5 M7.2 10.8 L5.8 9.4 M22.2 23.2 L20.8 21.8 M7.2 23.2 L5.8 24.6 M22.2 10.8 L20.8 12.2 M9 14 L7 14 M21 14 L19 14 M9 20 L7 20 M21 20 L19 20" stroke="#c42e1f" stroke-width="0.7" stroke-linecap="round"/>
    <path d="M14 24.5 C11.2 24.5 9.5 22.8 9.5 20.5 C9.5 18.5 11 17.2 13 17 C12.2 19.8 13.5 22.5 16 23.5 C15.2 24.2 14.6 24.5 14 24.5 Z" fill="#191512" opacity="0.85"/>
    <path d="M10 34.5 Q14 32.5 18 34.5" stroke="#191512" stroke-width="0.65" stroke-linecap="round"/>
  </g>
</svg>
